<svg xmlns="http://www.w3.org/2000/svg" viewBox="0 0 938.24 255.3"><title>logo-blackAsset 1</title><g id="Layer_2" data-name="Layer 2"><g id="Layer_1-2" data-name="Layer 1"><path d="M37.24,164.09H15.06v48.17H0V96.88H37.24c27.15,0,39.9,14.9,39.9,33.77C77.14,148.2,65.88,164.09,37.24,164.09Zm0-12.41c17.22,0,24.5-8.12,24.5-21,0-13.4-7.28-21.35-24.5-21.35H15.06v42.38Z"/><path d="M135.07,213.75c-25.82,0-44.85-18.21-44.85-47,0-28.64,18.37-46.68,44.85-46.68,26.32,0,43.54,18.54,43.54,43.37a81.76,81.76,0,0,1-.5,9.1h-72.5c1.16,18.38,14.07,28.47,29.46,28.47,13.58,0,22.19-6.95,25.5-16.71h16.22C172.15,200.84,157.59,213.75,135.07,213.75Zm-29.29-53.47h57.27c.16-17.71-13.08-27.47-28.64-27.47C119.68,132.81,107.43,142.57,105.78,160.28Z"/><path d="M213.54,212.26H198.47V121.55h15.07v14.73c5.13-10.1,14.9-16.39,29.3-16.39v15.56h-4c-14.4,0-25.32,6.46-25.32,27.48Z"/><path d="M292.33,213.75c-21.19,0-36.09-11.59-37.08-28.14h15.56c.83,8.77,8.61,15.39,21.35,15.39,11.92,0,18.54-6,18.54-13.4,0-20.2-53.63-8.45-53.63-42.21,0-13.91,13.08-25.33,33.27-25.33,20,0,33.28,10.76,34.27,28.47H309.55c-.67-9.1-7.62-15.72-19.7-15.72-11.09,0-17.72,5.29-17.72,12.58,0,21.51,52.64,9.76,53.31,42.21C325.44,202.49,312.36,213.75,292.33,213.75Z"/><path d="M395.62,120.06c24.33,0,43,18.21,43,46.51,0,28.14-18.71,47.18-43,47.18-16.55,0-28.31-8.94-33.93-18.21V255.3H346.62V121.55h15.07v16.72C367.15,128.67,379.07,120.06,395.62,120.06Zm-3.14,13.08c-16.39,0-30.79,12.58-30.79,33.6,0,21.35,14.4,33.77,30.79,33.77,16.71,0,30.78-12.58,30.78-33.94S409.19,133.14,392.48,133.14Z"/><path d="M454.72,184.29h16.22c3.31,9.76,11.92,16.71,25.49,16.71,15.4,0,28.31-10.09,29.47-28.47H453.39a81.79,81.79,0,0,1-.49-9.1c0-24.83,17.21-43.37,43.53-43.37,26.49,0,44.86,18,44.86,46.68,0,28.8-19,47-44.86,47C473.92,213.75,459.35,200.84,454.72,184.29Zm42.37-51.48c-15.56,0-28.8,9.76-28.63,27.47h57.27C524.07,142.57,511.83,132.81,497.09,132.81Z"/><path d="M599.72,120.06c22.52,0,37.25,11.59,41.88,30.62H625.38c-3.14-10.92-12.25-17.87-25.66-17.87-16.55,0-28.8,11.75-28.8,33.93,0,22.51,12.25,34.26,28.8,34.26,13.41,0,22.35-6.45,25.66-17.87H641.6c-4.63,18-19.36,30.62-41.88,30.62-25.82,0-44.19-18.21-44.19-47C555.53,138.27,573.9,120.06,599.72,120.06Z"/><path d="M664.94,134H653.19V121.55h11.75V98.7H680v22.85h23.67V134H680v53.47c0,8.94,3.31,12.08,12.58,12.08h11.09v12.75H690.1c-16.05,0-25.16-6.62-25.16-24.83Z"/><path d="M721.25,90.5A8.34,8.34,0,1,1,729.73,99,8.34,8.34,0,0,1,721.25,90.5Z"/><rect x="722.06" y="121.55" width="15.06" height="90.71"/><path d="M768.07,121.55l28.31,76.81,28.14-76.81h16.05L805,212.26H787.44l-35.59-90.71Z"/><path d="M894.7,213.75c-25.82,0-44.86-18.21-44.86-47,0-28.64,18.38-46.68,44.86-46.68,26.32,0,43.54,18.54,43.54,43.37a81.76,81.76,0,0,1-.5,9.1h-72.5C866.4,190.91,879.31,201,894.7,201c13.58,0,22.18-6.95,25.49-16.71h16.23C931.78,200.84,917.21,213.75,894.7,213.75Zm-29.3-53.47h57.28c.16-17.71-13.08-27.47-28.64-27.47C879.31,132.81,867.06,142.57,865.4,160.28Z"/><path d="M146.26,6V12.6h-22V85.38h-8V12.6H94.14V6Z"/><path d="M201,25.21a21,21,0,0,1,8.86,9,31.27,31.27,0,0,1,3.23,14.82V85.38H205.3V50q0-10.11-5.05-15.44t-13.8-5.34q-9,0-14.31,5.68t-5.33,16.69V85.38h-7.95v-84h7.95V34a20.48,20.48,0,0,1,8.68-8.63A28.57,28.57,0,0,1,201,25.21Z"/><path d="M286.6,57.45H235.16a24.91,24.91,0,0,0,3.41,12A20,20,0,0,0,246.63,77a23.61,23.61,0,0,0,10.9,2.55,21.89,21.89,0,0,0,13-3.74,17.58,17.58,0,0,0,7-10.11h8.4a26.24,26.24,0,0,1-9.7,14.82q-7.44,5.73-18.68,5.73a31.26,31.26,0,0,1-15.67-3.91A27.67,27.67,0,0,1,231,71.25a34.7,34.7,0,0,1-3.92-16.86A35.44,35.44,0,0,1,231,37.47a26.87,26.87,0,0,1,10.79-11.13,31.86,31.86,0,0,1,15.78-3.86A30.34,30.34,0,0,1,273,26.34a26.77,26.77,0,0,1,10.22,10.39,29.7,29.7,0,0,1,3.57,14.48C286.82,53.93,286.75,56,286.6,57.45ZM276,39.17a18.83,18.83,0,0,0-7.89-7.38,24.12,24.12,0,0,0-10.9-2.5A21.66,21.66,0,0,0,242.09,35q-6.26,5.69-6.93,16h43.6A22.11,22.11,0,0,0,276,39.17Z"/><path d="M378.56,10.79A33.26,33.26,0,0,1,393,24.53q5,9,5,21.34t-5,21.18a33,33,0,0,1-14.42,13.62q-9.42,4.71-22.59,4.71H332.46V6H356Q369.14,6,378.56,10.79Zm2.67,59.32q8.68-8.69,8.69-24.24T381.23,21.4q-8.69-8.79-25.26-8.8H340.41V78.8H356Q372.54,78.8,381.23,70.11Z"/><path d="M412.8,37.53A27.14,27.14,0,0,1,423.36,26.4a29.88,29.88,0,0,1,15.27-3.92,27.79,27.79,0,0,1,15.27,4.09A23.78,23.78,0,0,1,463.15,37V23.39h8v62h-8V71.65a24.91,24.91,0,0,1-9.36,10.5,27.57,27.57,0,0,1-15.28,4.14,29.29,29.29,0,0,1-15.15-4A27.49,27.49,0,0,1,412.8,71.08,35.68,35.68,0,0,1,409,54.27,35.3,35.3,0,0,1,412.8,37.53Zm47.29,3.69a22,22,0,0,0-8.35-8.75,22.8,22.8,0,0,0-11.64-3.06,23.58,23.58,0,0,0-11.81,2.95,21,21,0,0,0-8.23,8.57,28,28,0,0,0-3,13.34,28.41,28.41,0,0,0,3,13.35,21.21,21.21,0,0,0,8.23,8.74,23.31,23.31,0,0,0,11.81,3,22.71,22.71,0,0,0,11.64-3.07,21.92,21.92,0,0,0,8.35-8.74,27.36,27.36,0,0,0,3.06-13.17A27.31,27.31,0,0,0,460.09,41.22Z"/><path d="M489.15,10a5.71,5.71,0,0,1-1.7-4.2,5.53,5.53,0,0,1,1.7-4.14,5.89,5.89,0,0,1,8.18,0A5.53,5.53,0,0,1,499,5.79a5.71,5.71,0,0,1-1.7,4.2,5.75,5.75,0,0,1-8.18,0Zm8.06,13.4v62h-7.94v-62Z"/><path d="M523.22,1.36v84h-8v-84Z"/><path d="M592.36,23.39l-36.79,91.18h-8.28l12-29.53L533.89,23.39h8.74L563.75,76.3l20.44-52.91Z"/></g></g></svg>